:FULLY-SPECIFIED
:FORCE-ALL-JOINTS-BE-3DOF
:DEGREES
1325
root -1.75275 14.4502 8.17207 351.846 32.1601 363.259
lfemur 4.24339 -3.18852 -15.5214
ltibia 57.2576 -0 0
lfoot -30.347 28.5207 0.014921
ltoes -18.53 0 0
rfemur -43.776 -4.90873 -0.192272
rtibia 48.623 -0 0
rfoot 12.8344 5.70544 0.0642977
rtoes -4.81382 0 0
lowerback 13.8418 0.429093 -13.0701
upperback -1.31861 -1.66045 -0.28836
thorax -8.94001 -0.155813 7.43607
lowerneck -0.617984 -10.9913 -11.693
upperneck 9.82999 -15.4783 10.8273
head 4.80148 -7.64342 4.31606
lclavicle -2.39259e-17 2.0173e-15 -1.11444e-31
lhumerus -71.4462 -13.9047 101.689
lradius 96.6439 -0 0
lwrist 45.7271 0 0
lhand -18.5207 44.4717 -0.079118
lfingers 7.12502 -0 0
lthumb 12.5785 58.8614 -0.00141868
rclavicle 5.74985e-14 3.89618e-14 0
rhumerus 48.5292 6.45071 -41.7075
rradius 84.8493 -0 0
rwrist 31.1466 0 0
rhand -22.939 -27.9462 0.378338
rfingers 7.12502 -0 0
rthumb -11.6864 -70.4291 0
1326
root -1.85616 14.3247 8.39616 350.693 34.1457 363.342
lfemur 4.59751 -3.37127 -15.4391
ltibia 56.8367 -0 0
lfoot -30.1987 28.8663 0.0245235
ltoes -18.4775 0 0
rfemur -44.2727 -5.69478 0.180007
rtibia 47.6306 -0 0
rfoot 13.1943 5.97325 0.0301544
rtoes -5.10814 0 0
lowerback 16.8339 0.55452 -13.755
upperback -1.13284 -2.09608 -0.45524
thorax -10.346 -0.231402 7.83259
lowerneck -0.127438 -11.3868 -11.8384
upperneck 8.79124 -16.0436 11.4347
head 4.53092 -7.9304 4.51727
lclavicle -8.04211e-16 1.73898e-15 -1.25516e-31
lhumerus -74.1984 -12.9244 101.122
lradius 96.7475 -0 0
lwrist 47.3432 0 0
lhand -18.2329 44.1542 -0.0799153
lfingers 7.12502 -0 0
lthumb 12.5618 59.2116 -0.00298942
rclavicle 5.67604e-14 3.87025e-14 -2.51865e-31
rhumerus 51.0766 3.7083 -39.6249
rradius 84.313 -0 0
rwrist 31.7255 0 0
rhand -24.3548 -28.2698 0.407465
rfingers 7.12502 -0 0
rthumb -11.7047 -70.3958 -0.00142043
1327
root -1.87376 14.243 8.65248 351.936 33.8852 364.042
lfemur 4.71919 -3.43421 -15.4111
ltibia 56.4398 -0 0
lfoot -30.0189 29.2854 0.0349669
ltoes -18.3268 0 0
rfemur -44.8042 -6.52228 0.581641
rtibia 46.7826 -0 0
rfoot 13.4201 6.14116 0.00787526
rtoes -5.37062 0 0
lowerback 16.062 0.828815 -14.3709
upperback -1.32181 -1.77164 -0.752711
thorax -10.1964 -0.0560566 7.74248
lowerneck 0.344053 -11.6521 -11.9069
upperneck 7.92886 -16.4117 11.7802
head 4.27042 -8.12855 4.64439
lclavicle -1.62005e-15 1.44798e-15 -1.36176e-31
lhumerus -76.4222 -12.1522 100.631
lradius 96.8864 -0 0
lwrist 48.967 0 0
lhand -17.9452 43.8367 -0.079118
lfingers 7.12502 -0 0
lthumb 12.5397 59.6756 -0.00491344
rclavicle 5.46427e-14 3.79588e-14 -9.55891e-31
rhumerus 53.404 1.01471 -37.7605
rradius 83.8333 -0 0
rwrist 31.7186 0 0
rhand -25.8107 -28.6032 0.429065
rfingers 7.12502 -0 0
rthumb -11.7577 -70.299 -0.00548291
1328
root -1.87162 14.1918 8.90018 353.308 33.0778 364.356
lfemur 4.76853 -3.42346 -15.3937
ltibia 56.0717 -0 0
lfoot -29.8123 29.7668 0.0453364
ltoes -18.0884 0 0
rfemur -45.3653 -7.38064 1.00916
rtibia 46.0952 -0 0
rfoot 13.4983 6.19933 0
rtoes -5.59632 0 0
lowerback 14.5887 1.10008 -14.4824
upperback -1.59671 -1.22435 -0.987983
thorax -9.79573 0.18356 7.37849
lowerneck 0.782239 -11.8109 -11.8269
upperneck 7.47864 -16.6357 11.8229
head 4.08644 -8.2567 4.66403
lclavicle -2.4596e-15 1.14852e-15 -1.4282e-31
lhumerus -78.0703 -11.5924 100.248
lradius 97.0571 -0 0
lwrist 50.5831 0 0
lhand -17.66 43.522 -0.0767546
lfingers 7.12502 -0 0
lthumb 12.5129 60.2383 -0.00700615
rclavicle 5.12908e-14 3.67815e-14 -2.01407e-30
rhumerus 55.502 -1.57134 -36.1158
rradius 83.4197 -0 0
rwrist 31.6984 0 0
rhand -27.2934 -28.9432 0.442348
rfingers 7.12502 -0 0
rthumb -11.8427 -70.1437 -0.0118161
1329
root -1.86577 14.2029 9.11508 354.519 31.8263 364.2
lfemur 4.91138 -3.39244 -15.3433
ltibia 55.7371 -0 0
lfoot -29.5838 30.299 0.0547811
ltoes -17.7725 0 0
rfemur -45.9505 -8.25937 1.45879
rtibia 45.5843 -0 0
rfoot 13.4359 6.20403 -0.000737372
rtoes -5.78042 0 0
lowerback 13.2781 1.43225 -14.0079
upperback -1.9627 -0.520957 -1.1195
thorax -9.61503 0.491432 6.79182
lowerneck 0.982217 -11.9951 -11.4784
upperneck 7.35023 -16.8509 11.3445
head 3.97017 -8.37639 4.47014
lclavicle -3.311e-15 8.44835e-16 -1.45076e-31
lhumerus -79.0946 -11.25 100.002
lradius 97.2561 -0 0
lwrist 52.176 0 0
lhand -17.38 43.213 -0.0729098
lfingers 7.12502 -0 0
lthumb 12.4821 60.8844 -0.00908425
rclavicle 4.68499e-14 3.52218e-14 -3.31e-30
rhumerus 57.3621 -3.99112 -34.69
rradius 83.0815 -0 0
rwrist 31.666 0 0
rhand -28.7894 -29.2865 0.446829
rfingers 7.12502 -0 0
rthumb -11.9573 -69.9347 -0.0199737
1330
root -1.84394 14.1483 9.31333 354.805 29.8074 363.95
lfemur 5.13997 -3.34306 -15.2626
ltibia 55.4409 -0 0
lfoot -29.3382 30.8709 0.0625622
ltoes -17.3894 0 0
rfemur -46.5542 -9.14815 1.92637
rtibia 45.2661 -0 0
rfoot 13.2547 6.21769 -0.00285097
rtoes -5.91799 0 0
lowerback 12.5842 2.1034 -13.1569
upperback -2.04484 0.607542 -1.2329
thorax -9.53186 0.977159 5.94627
lowerneck 1.23702 -12.0384 -11.3764
upperneck 7.05788 -16.8905 11.1599
head 3.82049 -8.41063 4.42291
lclavicle -4.1624e-15 5.4115e-16 -1.4282e-31
lhumerus -79.4468 -11.1333 99.9165
lradius 97.4798 -0 0
lwrist 53.7302 0 0
lhand -17.1077 42.9125 -0.0677221
lfingers 7.12502 -0 0
lthumb 12.448 61.5989 -0.0109775
rclavicle 4.1465e-14 3.33305e-14 -4.71918e-30
rhumerus 58.9753 -6.18662 -33.4812
rradius 82.8283 -0 0
rwrist 31.6223 0 0
rhand -30.2854 -29.6298 0.442348
rfingers 7.12502 -0 0
rthumb -12.0985 -69.677 -0.0294602
1331
root -1.83959 14.0857 9.45963 355.686 28.9535 364.103
lfemur 5.44658 -3.27735 -15.1539
ltibia 55.1877 -0 0
lfoot -29.0804 31.471 0.0680915
ltoes -16.9495 0 0
rfemur -47.1701 -10.0368 2.40732
rtibia 45.1564 0 0
rfoot 12.9635 6.23967 -0.0061574
rtoes -6.00412 0 0
lowerback 12.1 2.33911 -12.6599
upperback -2.15329 1.05997 -1.31449
thorax -9.44545 1.16323 5.48597
lowerneck 0.976402 -12.0133 -11.3387
upperneck 7.08107 -16.7891 10.6968
head 3.81556 -8.36324 4.27174
lclavicle -5.00195e-15 2.41693e-16 -1.36176e-31
lhumerus -79.4185 -11.1553 99.9337
lradius 97.7247 -0 0
lwrist 55.2304 0 0
lhand -16.8457 42.6234 -0.0613811
lfingers 7.12502 -0 0
lthumb 12.4113 62.3664 -0.0125371
rclavicle 3.52816e-14 3.11588e-14 -6.11813e-30
rhumerus 60.3313 -8.10101 -32.4872
rradius 82.6694 -0 0
rwrist 31.5684 0 0
rhand -31.7681 -29.9698 0.429065
rfingers 7.12502 -0 0
rthumb -12.2639 -69.3752 -0.0397553
1332
root -1.83115 14.0232 9.60085 355.872 27.7 364.145
lfemur 5.82348 -3.19741 -15.02
ltibia 54.9825 -0 0
lfoot -28.8153 32.0882 0.0709608
ltoes -16.4632 0 0
rfemur -47.792 -10.9155 2.89662
rtibia 45.2384 -0 0
rfoot 12.5711 6.2693 -0.0104362
rtoes -6.03392 0 0
lowerback 12.0785 2.78001 -12.0914
upperback -2.0569 1.74427 -1.32269
thorax -9.43104 1.45425 5.01603
lowerneck 0.987933 -12.0345 -11.3222
upperneck 6.68299 -16.7593 10.4027
head 3.6639 -8.35956 4.19732
lclavicle -5.81779e-15 -4.93088e-17 -1.25516e-31
lhumerus -79.3368 -11.2189 99.9835
lradius 97.9872 -0 0
lwrist 56.661 0 0
lhand -16.5965 42.3484 -0.0541232
lfingers 7.12502 -0 0
lthumb 12.3728 63.1719 -0.0136454
rclavicle 2.84446e-14 2.87575e-14 -7.39206e-30
rhumerus 61.4173 -9.67908 -31.7069
rradius 82.6144 0 0
rwrist 31.5051 0 0
rhand -33.224 -30.3032 0.407465
rfingers 7.12502 -0 0
rthumb -12.4508 -69.0344 -0.0503348
1333
root -1.83785 13.9645 9.74347 356.473 26.8007 364.407
lfemur 6.26297 -3.10534 -14.8633
ltibia 54.83 -0 0
lfoot -28.5476 32.711 0.0709608
ltoes -15.9407 0 0
rfemur -48.4129 -11.7744 3.38875
rtibia 45.4764 -0 0
rfoot 12.0863 6.30596 -0.0154421
rtoes -6.02783 0 0
lowerback 11.7846 3.07012 -12.12
upperback -2.10295 2.1703 -1.27399
thorax -9.39409 1.66136 5.00042
lowerneck 1.45234 -11.9789 -11.5653
upperneck 5.99653 -16.6835 10.5317
head 3.40504 -8.34381 4.32565
lclavicle -6.59807e-15 -3.27628e-16 -1.11444e-31
lhumerus -79.2063 -11.3207 100.063
lradius 98.2639 -0 0
lwrist 58.0067 0 0
lhand -16.3627 42.0904 -0.0462253
lfingers 7.12502 -0 0
lthumb 12.3332 64.0001 -0.0142205
rclavicle 2.10995e-14 2.61778e-14 -8.44142e-30
rhumerus 62.218 -10.8676 -31.1412
rradius 82.6078 -0 0
rwrist 31.4336 0 0
rhand -34.6398 -30.6268 0.378338
rfingers 7.12502 -0 0
rthumb -12.6565 -68.6594 -0.0606905
1334
root -1.85294 13.9271 9.87981 356.55 26.3118 364.676
lfemur 6.75733 -3.00328 -14.6862
ltibia 54.7349 -0 0
lfoot -28.2825 33.3282 0.0680915
ltoes -15.3923 0 0
rfemur -49.0255 -12.6042 3.87771
rtibia 45.8584 -0 0
rfoot 11.5176 6.349 -0.0209183
rtoes -6.01011 0 0
lowerback 12.1341 3.32847 -12.2429
upperback -2.0278 2.4534 -1.21224
thorax -9.57643 1.81068 5.06425
lowerneck 1.59792 -11.9693 -11.7169
upperneck 5.88495 -16.6762 10.5607
head 3.36227 -8.34762 4.36852
lclavicle -7.33095e-15 -5.89036e-16 -9.47752e-32
lhumerus -79.0319 -11.4571 100.169
lradius 98.5512 -0 0
lwrist 59.2519 0 0
lhand -16.1469 41.8521 -0.037998
lfingers 7.12502 -0 0
lthumb 12.2932 64.8359 -0.0142205
rclavicle 1.33913e-14 2.34705e-14 -9.18701e-30
rhumerus 62.715 -11.6156 -30.7945
rradius 82.5888 -0 0
rwrist 31.3546 0 0
rhand -36.0022 -30.9375 0.342765
rfingers 7.12502 -0 0
rthumb -12.8782 -68.2551 -0.070347
1335
root -1.87401 13.9151 10.0157 356.731 26.2756 365.032
lfemur 7.29899 -2.89326 -14.4914
ltibia 54.7022 0 0
lfoot -28.0247 33.9283 0.0625622
ltoes -14.8284 0 0
rfemur -49.622 -13.3955 4.35699
rtibia 46.3725 -0 0
rfoot 10.8742 6.39776 -0.0265981
rtoes -5.98159 0 0
lowerback 12.5398 3.44302 -12.5407
upperback -2.01288 2.50073 -1.18041
thorax -9.82496 1.86186 5.23928
lowerneck 1.51939 -11.9956 -11.7438
upperneck 6.15134 -16.7179 10.512
head 3.45782 -8.36533 4.34152
lclavicle -8.00456e-15 -8.29307e-16 -7.65051e-32
lhumerus -78.8182 -11.6248 100.298
lradius 98.8455 -0 0
lwrist 60.3812 0 0
lhand -15.9516 41.6366 -0.0297777
lfingers 7.12502 -0 0
lthumb 12.2536 65.6641 -0.0136454
rclavicle 5.46534e-15 2.06867e-14 -9.57386e-30
rhumerus 62.8861 -11.8751 -30.6759
rradius 82.5587 -0 0
rwrist 31.2693 0 0
rhand -37.2978 -31.2322 0.302084
rfingers 7.12502 -0 0
rthumb -13.1135 -67.8263 -0.0788763
1336
root -1.90304 13.9198 10.1564 356.82 26.5148 365.033
lfemur 7.87993 -2.77739 -14.2814
ltibia 54.5996 -0 0
lfoot -27.7791 34.5002 0.0547811
ltoes -14.2593 0 0
rfemur -50.1944 -14.1394 4.81959
rtibia 47.0066 -0 0
rfoot 10.1648 6.4516 -0.0322256
rtoes -5.94311 0 0
lowerback 12.7934 3.46233 -12.5938
upperback -1.9481 2.4905 -1.1021
thorax -9.9047 1.86362 5.35058
lowerneck 1.43195 -12.0739 -11.7463
upperneck 6.3015 -16.8389 10.6773
head 3.54523 -8.41706 4.36984
lclavicle -8.60706e-15 -1.04421e-15 -5.77706e-32
lhumerus -78.5701 -11.8204 100.448
lradius 99.1434 -0 0
lwrist 61.3792 0 0
lhand -15.7793 41.4464 -0.0219166
lfingers 7.12502 -0 0
lthumb 12.2151 66.4696 -0.0125371
rclavicle -2.53324e-15 1.78775e-14 -9.57386e-30
rhumerus 62.885 -11.8881 -30.6542
rradius 82.5188 -0 0
rwrist 31.1787 0 0
rhand -38.5134 -31.5078 0.257862
rfingers 7.12502 -0 0
rthumb -13.3595 -67.378 -0.0859113
